<?xml version="1.0" encoding="UTF-8" standalone="no"?>
<!DOCTYPE svg PUBLIC "-//W3C//DTD SVG 1.1//EN"
 "http://www.w3.org/Graphics/SVG/1.1/DTD/svg11.dtd">
<!-- Generated by graphviz version 2.44.0 (0)
 -->
<!-- Title: pager Pages: 1 -->
<svg width="593pt" height="306pt"
 viewBox="0.00 0.00 593.00 305.50" xmlns="http://www.w3.org/2000/svg" xmlns:xlink="http://www.w3.org/1999/xlink">
<g id="graph0" class="graph" transform="scale(1 1) rotate(0) translate(4 301.5)">
<title>pager</title>
<polygon fill="white" stroke="transparent" points="-4,4 -4,-301.5 589,-301.5 589,4 -4,4"/>
<!-- mutt_index_menu1 -->
<g id="node1" class="node">
<title>mutt_index_menu1</title>
<path fill="none" stroke="black" d="M24.33,-233C24.33,-233 129.67,-233 129.67,-233 134.33,-233 139,-237.67 139,-242.33 139,-242.33 139,-251.67 139,-251.67 139,-256.33 134.33,-261 129.67,-261 129.67,-261 24.33,-261 24.33,-261 19.67,-261 15,-256.33 15,-251.67 15,-251.67 15,-242.33 15,-242.33 15,-237.67 19.67,-233 24.33,-233"/>
<text text-anchor="start" x="23" y="-248.4" font-family="Times-Roman" font-size="12.00">mutt_index_menu</text>
<text text-anchor="start" x="28.5" y="-239.6" font-family="Times-Roman" font-size="8.00">&lt;show&#45;log&#45;messages&gt;</text>
</g>
<!-- mutt_do_pager -->
<g id="node4" class="node">
<title>mutt_do_pager</title>
<path fill="none" stroke="black" d="M219.5,-130.5C219.5,-130.5 312.5,-130.5 312.5,-130.5 316,-130.5 319.5,-134 319.5,-137.5 319.5,-137.5 319.5,-144.5 319.5,-144.5 319.5,-148 316,-151.5 312.5,-151.5 312.5,-151.5 219.5,-151.5 219.5,-151.5 216,-151.5 212.5,-148 212.5,-144.5 212.5,-144.5 212.5,-137.5 212.5,-137.5 212.5,-134 216,-130.5 219.5,-130.5"/>
<text text-anchor="middle" x="266" y="-137.9" font-family="Times-Roman" font-size="12.00">mutt_do_pager</text>
</g>
<!-- mutt_index_menu1&#45;&gt;mutt_do_pager -->
<g id="edge8" class="edge">
<title>mutt_index_menu1&#45;&gt;mutt_do_pager</title>
<path fill="none" stroke="black" d="M139.39,-234.96C144.43,-233.23 149.36,-231.25 154,-229 193.21,-209.99 231.32,-175.14 251.06,-155.48"/>
<polygon fill="black" stroke="black" points="252.48,-156.54 254.76,-151.76 250,-154.07 252.48,-156.54"/>
</g>
<!-- mutt_index_menu2 -->
<g id="node2" class="node">
<title>mutt_index_menu2</title>
<path fill="none" stroke="black" d="M24.33,-269C24.33,-269 129.67,-269 129.67,-269 134.33,-269 139,-273.67 139,-278.33 139,-278.33 139,-287.67 139,-287.67 139,-292.33 134.33,-297 129.67,-297 129.67,-297 24.33,-297 24.33,-297 19.67,-297 15,-292.33 15,-287.67 15,-287.67 15,-278.33 15,-278.33 15,-273.67 19.67,-269 24.33,-269"/>
<text text-anchor="start" x="23" y="-284.4" font-family="Times-Roman" font-size="12.00">mutt_index_menu</text>
<text text-anchor="start" x="35" y="-275.6" font-family="Times-Roman" font-size="8.00">&lt;display&#45;message&gt;</text>
</g>
<!-- mutt_display_message -->
<g id="node8" class="node">
<title>mutt_display_message</title>
<path fill="none" stroke="black" d="M197,-215.5C197,-215.5 335,-215.5 335,-215.5 338.5,-215.5 342,-219 342,-222.5 342,-222.5 342,-229.5 342,-229.5 342,-233 338.5,-236.5 335,-236.5 335,-236.5 197,-236.5 197,-236.5 193.5,-236.5 190,-233 190,-229.5 190,-229.5 190,-222.5 190,-222.5 190,-219 193.5,-215.5 197,-215.5"/>
<text text-anchor="middle" x="266" y="-222.9" font-family="Times-Roman" font-size="12.00">mutt_display_message</text>
</g>
<!-- mutt_index_menu2&#45;&gt;mutt_display_message -->
<g id="edge9" class="edge">
<title>mutt_index_menu2&#45;&gt;mutt_display_message</title>
<path fill="none" stroke="black" d="M139.13,-269.12C144.18,-267.79 149.19,-266.41 154,-265 180.79,-257.15 210.61,-246.56 232.59,-238.4"/>
<polygon fill="black" stroke="black" points="233.36,-239.98 237.44,-236.6 232.14,-236.7 233.36,-239.98"/>
</g>
<!-- dlg_select_pgp_key -->
<g id="node3" class="node">
<title>dlg_select_pgp_key</title>
<path fill="none" stroke="black" d="M18.5,-203.5C18.5,-203.5 135.5,-203.5 135.5,-203.5 139,-203.5 142.5,-207 142.5,-210.5 142.5,-210.5 142.5,-217.5 142.5,-217.5 142.5,-221 139,-224.5 135.5,-224.5 135.5,-224.5 18.5,-224.5 18.5,-224.5 15,-224.5 11.5,-221 11.5,-217.5 11.5,-217.5 11.5,-210.5 11.5,-210.5 11.5,-207 15,-203.5 18.5,-203.5"/>
<text text-anchor="middle" x="77" y="-210.9" font-family="Times-Roman" font-size="12.00">dlg_select_pgp_key</text>
</g>
<!-- dlg_select_pgp_key&#45;&gt;mutt_do_pager -->
<g id="edge1" class="edge">
<title>dlg_select_pgp_key&#45;&gt;mutt_do_pager</title>
<path fill="none" stroke="black" d="M139.39,-203.47C144.38,-202.14 149.31,-200.65 154,-199 186.94,-187.42 222.23,-167.54 243.96,-154.34"/>
<polygon fill="black" stroke="black" points="245.04,-155.73 248.39,-151.63 243.21,-152.75 245.04,-155.73"/>
</g>
<!-- mutt_pager -->
<g id="node9" class="node">
<title>mutt_pager</title>
<path fill="none" stroke="black" d="M385,-144.5C385,-144.5 457,-144.5 457,-144.5 460.5,-144.5 464,-148 464,-151.5 464,-151.5 464,-158.5 464,-158.5 464,-162 460.5,-165.5 457,-165.5 457,-165.5 385,-165.5 385,-165.5 381.5,-165.5 378,-162 378,-158.5 378,-158.5 378,-151.5 378,-151.5 378,-148 381.5,-144.5 385,-144.5"/>
<text text-anchor="middle" x="421" y="-151.9" font-family="Times-Roman" font-size="12.00">mutt_pager</text>
</g>
<!-- mutt_do_pager&#45;&gt;mutt_pager -->
<g id="edge6" class="edge">
<title>mutt_do_pager&#45;&gt;mutt_pager</title>
<path fill="none" stroke="black" d="M319.65,-145.82C336.89,-147.39 355.92,-149.14 372.73,-150.67"/>
<polygon fill="black" stroke="black" points="372.73,-152.43 377.87,-151.14 373.05,-148.95 372.73,-152.43"/>
</g>
<!-- icmd_bind -->
<g id="node5" class="node">
<title>icmd_bind</title>
<path fill="none" stroke="black" d="M45.5,-174.5C45.5,-174.5 108.5,-174.5 108.5,-174.5 112,-174.5 115.5,-178 115.5,-181.5 115.5,-181.5 115.5,-188.5 115.5,-188.5 115.5,-192 112,-195.5 108.5,-195.5 108.5,-195.5 45.5,-195.5 45.5,-195.5 42,-195.5 38.5,-192 38.5,-188.5 38.5,-188.5 38.5,-181.5 38.5,-181.5 38.5,-178 42,-174.5 45.5,-174.5"/>
<text text-anchor="middle" x="77" y="-181.9" font-family="Times-Roman" font-size="12.00">icmd_bind</text>
</g>
<!-- icmd_bind&#45;&gt;mutt_do_pager -->
<g id="edge2" class="edge">
<title>icmd_bind&#45;&gt;mutt_do_pager</title>
<path fill="none" stroke="black" d="M115.59,-178.05C127.87,-175.65 141.55,-172.85 154,-170 176.65,-164.81 201.7,-158.33 222.27,-152.81"/>
<polygon fill="black" stroke="black" points="222.75,-154.49 227.12,-151.5 221.84,-151.11 222.75,-154.49"/>
</g>
<!-- icmd_set -->
<g id="node6" class="node">
<title>icmd_set</title>
<path fill="none" stroke="black" d="M49,-145.5C49,-145.5 105,-145.5 105,-145.5 108.5,-145.5 112,-149 112,-152.5 112,-152.5 112,-159.5 112,-159.5 112,-163 108.5,-166.5 105,-166.5 105,-166.5 49,-166.5 49,-166.5 45.5,-166.5 42,-163 42,-159.5 42,-159.5 42,-152.5 42,-152.5 42,-149 45.5,-145.5 49,-145.5"/>
<text text-anchor="middle" x="77" y="-152.9" font-family="Times-Roman" font-size="12.00">icmd_set</text>
</g>
<!-- icmd_set&#45;&gt;mutt_do_pager -->
<g id="edge3" class="edge">
<title>icmd_set&#45;&gt;mutt_do_pager</title>
<path fill="none" stroke="black" d="M112.3,-153.25C138.71,-151.13 175.83,-148.15 206.86,-145.66"/>
<polygon fill="black" stroke="black" points="207.34,-147.38 212.18,-145.24 207.06,-143.89 207.34,-147.38"/>
</g>
<!-- icmd_version -->
<g id="node7" class="node">
<title>icmd_version</title>
<path fill="none" stroke="black" d="M36.5,-116.5C36.5,-116.5 117.5,-116.5 117.5,-116.5 121,-116.5 124.5,-120 124.5,-123.5 124.5,-123.5 124.5,-130.5 124.5,-130.5 124.5,-134 121,-137.5 117.5,-137.5 117.5,-137.5 36.5,-137.5 36.5,-137.5 33,-137.5 29.5,-134 29.5,-130.5 29.5,-130.5 29.5,-123.5 29.5,-123.5 29.5,-120 33,-116.5 36.5,-116.5"/>
<text text-anchor="middle" x="77" y="-123.9" font-family="Times-Roman" font-size="12.00">icmd_version</text>
</g>
<!-- icmd_version&#45;&gt;mutt_do_pager -->
<g id="edge4" class="edge">
<title>icmd_version&#45;&gt;mutt_do_pager</title>
<path fill="none" stroke="black" d="M124.71,-130.5C149.65,-132.36 180.59,-134.68 207.06,-136.66"/>
<polygon fill="black" stroke="black" points="207.18,-138.43 212.29,-137.05 207.44,-134.94 207.18,-138.43"/>
</g>
<!-- mutt_display_message&#45;&gt;mutt_pager -->
<g id="edge5" class="edge">
<title>mutt_display_message&#45;&gt;mutt_pager</title>
<path fill="none" stroke="black" d="M289.91,-215.37C317.28,-202.67 363.07,-181.42 392.38,-167.82"/>
<polygon fill="black" stroke="black" points="393.14,-169.39 396.94,-165.7 391.67,-166.22 393.14,-169.39"/>
</g>
<!-- display_line -->
<g id="node12" class="node">
<title>display_line</title>
<path fill="none" stroke="black" d="M507,-144.5C507,-144.5 578,-144.5 578,-144.5 581.5,-144.5 585,-148 585,-151.5 585,-151.5 585,-158.5 585,-158.5 585,-162 581.5,-165.5 578,-165.5 578,-165.5 507,-165.5 507,-165.5 503.5,-165.5 500,-162 500,-158.5 500,-158.5 500,-151.5 500,-151.5 500,-148 503.5,-144.5 507,-144.5"/>
<text text-anchor="middle" x="542.5" y="-151.9" font-family="Times-Roman" font-size="12.00">display_line</text>
</g>
<!-- mutt_pager&#45;&gt;display_line -->
<g id="edge11" class="edge">
<title>mutt_pager&#45;&gt;display_line</title>
<path fill="none" stroke="black" d="M464.13,-155C473.97,-155 484.52,-155 494.55,-155"/>
<polygon fill="black" stroke="black" points="494.75,-156.75 499.75,-155 494.75,-153.25 494.75,-156.75"/>
</g>
<!-- mutt_help -->
<g id="node10" class="node">
<title>mutt_help</title>
<path fill="none" stroke="black" d="M45.5,-87.5C45.5,-87.5 108.5,-87.5 108.5,-87.5 112,-87.5 115.5,-91 115.5,-94.5 115.5,-94.5 115.5,-101.5 115.5,-101.5 115.5,-105 112,-108.5 108.5,-108.5 108.5,-108.5 45.5,-108.5 45.5,-108.5 42,-108.5 38.5,-105 38.5,-101.5 38.5,-101.5 38.5,-94.5 38.5,-94.5 38.5,-91 42,-87.5 45.5,-87.5"/>
<text text-anchor="middle" x="77" y="-94.9" font-family="Times-Roman" font-size="12.00">mutt_help</text>
</g>
<!-- mutt_help&#45;&gt;mutt_do_pager -->
<g id="edge7" class="edge">
<title>mutt_help&#45;&gt;mutt_do_pager</title>
<path fill="none" stroke="black" d="M115.58,-105.01C127.85,-107.41 141.53,-110.2 154,-113 175.9,-117.92 200.08,-123.95 220.26,-129.15"/>
<polygon fill="black" stroke="black" points="220.03,-130.89 225.3,-130.45 220.9,-127.51 220.03,-130.89"/>
</g>
<!-- mutt_invoke_sendmail -->
<g id="node11" class="node">
<title>mutt_invoke_sendmail</title>
<path fill="none" stroke="black" d="M9,-58.5C9,-58.5 145,-58.5 145,-58.5 148.5,-58.5 152,-62 152,-65.5 152,-65.5 152,-72.5 152,-72.5 152,-76 148.5,-79.5 145,-79.5 145,-79.5 9,-79.5 9,-79.5 5.5,-79.5 2,-76 2,-72.5 2,-72.5 2,-65.5 2,-65.5 2,-62 5.5,-58.5 9,-58.5"/>
<text text-anchor="middle" x="77" y="-65.9" font-family="Times-Roman" font-size="12.00">mutt_invoke_sendmail</text>
</g>
<!-- mutt_invoke_sendmail&#45;&gt;mutt_do_pager -->
<g id="edge10" class="edge">
<title>mutt_invoke_sendmail&#45;&gt;mutt_do_pager</title>
<path fill="none" stroke="black" d="M139.38,-79.56C144.37,-80.89 149.3,-82.37 154,-84 186.67,-95.36 221.76,-114.72 243.55,-127.68"/>
<polygon fill="black" stroke="black" points="242.8,-129.27 247.99,-130.34 244.6,-126.27 242.8,-129.27"/>
</g>
<!-- verify_key -->
<g id="node13" class="node">
<title>verify_key</title>
<path fill="none" stroke="black" d="M45.5,-29.5C45.5,-29.5 108.5,-29.5 108.5,-29.5 112,-29.5 115.5,-33 115.5,-36.5 115.5,-36.5 115.5,-43.5 115.5,-43.5 115.5,-47 112,-50.5 108.5,-50.5 108.5,-50.5 45.5,-50.5 45.5,-50.5 42,-50.5 38.5,-47 38.5,-43.5 38.5,-43.5 38.5,-36.5 38.5,-36.5 38.5,-33 42,-29.5 45.5,-29.5"/>
<text text-anchor="middle" x="77" y="-36.9" font-family="Times-Roman" font-size="12.00">verify_key</text>
</g>
<!-- verify_key&#45;&gt;mutt_do_pager -->
<g id="edge12" class="edge">
<title>verify_key&#45;&gt;mutt_do_pager</title>
<path fill="none" stroke="black" d="M115.79,-43.92C128.34,-46.14 142.13,-49.6 154,-55 193.32,-72.89 231.38,-107.21 251.1,-126.65"/>
<polygon fill="black" stroke="black" points="250.01,-128.04 254.79,-130.33 252.48,-125.56 250.01,-128.04"/>
</g>
<!-- mutt_view_attachment -->
<g id="node14" class="node">
<title>mutt_view_attachment</title>
<path fill="none" stroke="black" d="M7,-0.5C7,-0.5 147,-0.5 147,-0.5 150.5,-0.5 154,-4 154,-7.5 154,-7.5 154,-14.5 154,-14.5 154,-18 150.5,-21.5 147,-21.5 147,-21.5 7,-21.5 7,-21.5 3.5,-21.5 0,-18 0,-14.5 0,-14.5 0,-7.5 0,-7.5 0,-4 3.5,-0.5 7,-0.5"/>
<text text-anchor="middle" x="77" y="-7.9" font-family="Times-Roman" font-size="12.00">mutt_view_attachment</text>
</g>
<!-- mutt_view_attachment&#45;&gt;mutt_do_pager -->
<g id="edge13" class="edge">
<title>mutt_view_attachment&#45;&gt;mutt_do_pager</title>
<path fill="none" stroke="black" d="M144.37,-21.52C147.7,-22.84 150.93,-24.33 154,-26 199.65,-50.88 237.93,-100.93 255.18,-125.99"/>
<polygon fill="black" stroke="black" points="253.9,-127.21 258.15,-130.37 256.79,-125.25 253.9,-127.21"/>
</g>
</g>
</svg>
