<?xml version="1.0" encoding="UTF-8" standalone="no"?>
<!DOCTYPE svg PUBLIC "-//W3C//DTD SVG 1.1//EN"
 "http://www.w3.org/Graphics/SVG/1.1/DTD/svg11.dtd">
<!-- Generated by graphviz version 2.48.0 (0)
 -->
<!-- Title: callgraph Pages: 1 -->
<svg width="1023pt" height="134pt"
 viewBox="0.00 0.00 1023.00 134.00" xmlns="http://www.w3.org/2000/svg" xmlns:xlink="http://www.w3.org/1999/xlink">
<g id="graph0" class="graph" transform="scale(1 1) rotate(0) translate(4 130)">
<title>callgraph</title>
<polygon fill="white" stroke="transparent" points="-4,4 -4,-130 1019,-130 1019,4 -4,4"/>
<!-- dlg_select_attachment -->
<g id="node1" class="node">
<title>dlg_select_attachment</title>
<path fill="#ffffff" stroke="#00ff00" stroke-width="1.5" d="M7,-89.5C7,-89.5 158,-89.5 158,-89.5 161.5,-89.5 165,-93 165,-96.5 165,-96.5 165,-103.5 165,-103.5 165,-107 161.5,-110.5 158,-110.5 158,-110.5 7,-110.5 7,-110.5 3.5,-110.5 0,-107 0,-103.5 0,-103.5 0,-96.5 0,-96.5 0,-93 3.5,-89.5 7,-89.5"/>
<text text-anchor="start" x="8" y="-97.9" font-family="Times,serif" font-size="12.00">dlg_select_attachment </text>
<text text-anchor="start" x="146" y="-97.9" font-family="Times,serif" font-size="12.00" fill="red">●</text>
</g>
<!-- mutt_print_attachment_list -->
<g id="node3" class="node">
<title>mutt_print_attachment_list</title>
<path fill="#ffffff" stroke="#0000ff" stroke-width="1.5" d="M208,-71.5C208,-71.5 387,-71.5 387,-71.5 390.5,-71.5 394,-75 394,-78.5 394,-78.5 394,-85.5 394,-85.5 394,-89 390.5,-92.5 387,-92.5 387,-92.5 208,-92.5 208,-92.5 204.5,-92.5 201,-89 201,-85.5 201,-85.5 201,-78.5 201,-78.5 201,-75 204.5,-71.5 208,-71.5"/>
<text text-anchor="start" x="209" y="-79.9" font-family="Times,serif" font-size="12.00">mutt_print_attachment_list </text>
<text text-anchor="start" x="375" y="-79.9" font-family="Times,serif" font-size="12.00" fill="red">●</text>
</g>
<!-- dlg_select_attachment&#45;&gt;mutt_print_attachment_list -->
<g id="edge1" class="edge">
<title>dlg_select_attachment&#45;&gt;mutt_print_attachment_list</title>
<path fill="none" stroke="black" d="M165.24,-93.09C175.22,-92.25 185.51,-91.38 195.73,-90.52"/>
<polygon fill="black" stroke="black" points="195.9,-92.26 200.74,-90.09 195.61,-88.77 195.9,-92.26"/>
</g>
<!-- op_print -->
<g id="node2" class="node">
<title>op_print</title>
<path fill="#ffffff" stroke="#00ff00" stroke-width="1.5" d="M48.5,-53.5C48.5,-53.5 116.5,-53.5 116.5,-53.5 120,-53.5 123.5,-57 123.5,-60.5 123.5,-60.5 123.5,-67.5 123.5,-67.5 123.5,-71 120,-74.5 116.5,-74.5 116.5,-74.5 48.5,-74.5 48.5,-74.5 45,-74.5 41.5,-71 41.5,-67.5 41.5,-67.5 41.5,-60.5 41.5,-60.5 41.5,-57 45,-53.5 48.5,-53.5"/>
<text text-anchor="start" x="49.5" y="-61.9" font-family="Times,serif" font-size="12.00">op_print </text>
<text text-anchor="start" x="104.5" y="-61.9" font-family="Times,serif" font-size="12.00" fill="red">●</text>
</g>
<!-- op_print&#45;&gt;mutt_print_attachment_list -->
<g id="edge6" class="edge">
<title>op_print&#45;&gt;mutt_print_attachment_list</title>
<path fill="none" stroke="black" d="M123.56,-67.39C144.13,-69.12 170.19,-71.33 195.8,-73.49"/>
<polygon fill="black" stroke="black" points="195.79,-75.25 200.92,-73.92 196.08,-71.76 195.79,-75.25"/>
</g>
<!-- print_attachment_list -->
<g id="node5" class="node">
<title>print_attachment_list</title>
<path fill="#ffffff" stroke="#0000ff" stroke-width="1.5" d="M437,-71.5C437,-71.5 582,-71.5 582,-71.5 585.5,-71.5 589,-75 589,-78.5 589,-78.5 589,-85.5 589,-85.5 589,-89 585.5,-92.5 582,-92.5 582,-92.5 437,-92.5 437,-92.5 433.5,-92.5 430,-89 430,-85.5 430,-85.5 430,-78.5 430,-78.5 430,-75 433.5,-71.5 437,-71.5"/>
<text text-anchor="start" x="438" y="-79.9" font-family="Times,serif" font-size="12.00">print_attachment_list </text>
<text text-anchor="start" x="570" y="-79.9" font-family="Times,serif" font-size="12.00" fill="red">●</text>
</g>
<!-- mutt_print_attachment_list&#45;&gt;print_attachment_list -->
<g id="edge5" class="edge">
<title>mutt_print_attachment_list&#45;&gt;print_attachment_list</title>
<path fill="none" stroke="black" d="M394.28,-82C404.41,-82 414.66,-82 424.65,-82"/>
<polygon fill="black" stroke="black" points="424.84,-83.75 429.84,-82 424.84,-80.25 424.84,-83.75"/>
</g>
<!-- pipe_attachment -->
<g id="node4" class="node">
<title>pipe_attachment</title>
<path fill="#ffffff" stroke="#0000ff" stroke-width="1.5" d="M651,-104.5C651,-104.5 753,-104.5 753,-104.5 756.5,-104.5 760,-108 760,-111.5 760,-111.5 760,-118.5 760,-118.5 760,-122 756.5,-125.5 753,-125.5 753,-125.5 651,-125.5 651,-125.5 647.5,-125.5 644,-122 644,-118.5 644,-118.5 644,-111.5 644,-111.5 644,-108 647.5,-104.5 651,-104.5"/>
<text text-anchor="middle" x="702" y="-111.9" font-family="Times,serif" font-size="12.00">pipe_attachment</text>
</g>
<!-- print_attachment_list&#45;&gt;pipe_attachment -->
<g id="edge9" class="edge">
<title>print_attachment_list&#45;&gt;pipe_attachment</title>
<path fill="none" stroke="black" d="M571.3,-92.53C592.77,-96.25 616.94,-100.44 638.55,-104.18"/>
<polygon fill="black" stroke="black" points="638.47,-105.94 643.69,-105.07 639.07,-102.5 638.47,-105.94"/>
</g>
<!-- mutt_decode_save_attachment -->
<g id="node6" class="node">
<title>mutt_decode_save_attachment</title>
<path fill="#ffffff" stroke="#ff0000" stroke-width="1.5" d="M822,-72.5C822,-72.5 1008,-72.5 1008,-72.5 1011.5,-72.5 1015,-76 1015,-79.5 1015,-79.5 1015,-86.5 1015,-86.5 1015,-90 1011.5,-93.5 1008,-93.5 1008,-93.5 822,-93.5 822,-93.5 818.5,-93.5 815,-90 815,-86.5 815,-86.5 815,-79.5 815,-79.5 815,-76 818.5,-72.5 822,-72.5"/>
<text text-anchor="middle" x="915" y="-79.9" font-family="Times,serif" font-size="12.00">mutt_decode_save_attachment</text>
</g>
<!-- print_attachment_list&#45;&gt;mutt_decode_save_attachment -->
<g id="edge7" class="edge">
<title>print_attachment_list&#45;&gt;mutt_decode_save_attachment</title>
<path fill="none" stroke="black" d="M589.26,-82.2C652.07,-82.35 740.6,-82.57 809.36,-82.74"/>
<polygon fill="black" stroke="black" points="809.69,-84.49 814.69,-82.75 809.7,-80.99 809.69,-84.49"/>
</g>
<!-- mutt_print_attachment -->
<g id="node8" class="node">
<title>mutt_print_attachment</title>
<path fill="#ffffff" stroke="#ff0000" stroke-width="1.5" d="M632,-37.5C632,-37.5 772,-37.5 772,-37.5 775.5,-37.5 779,-41 779,-44.5 779,-44.5 779,-51.5 779,-51.5 779,-55 775.5,-58.5 772,-58.5 772,-58.5 632,-58.5 632,-58.5 628.5,-58.5 625,-55 625,-51.5 625,-51.5 625,-44.5 625,-44.5 625,-41 628.5,-37.5 632,-37.5"/>
<text text-anchor="middle" x="702" y="-44.9" font-family="Times,serif" font-size="12.00">mutt_print_attachment</text>
</g>
<!-- print_attachment_list&#45;&gt;mutt_print_attachment -->
<g id="edge8" class="edge">
<title>print_attachment_list&#45;&gt;mutt_print_attachment</title>
<path fill="none" stroke="black" d="M569.47,-71.48C590.82,-67.67 615.02,-63.35 636.79,-59.46"/>
<polygon fill="black" stroke="black" points="637.37,-61.14 641.98,-58.53 636.75,-57.69 637.37,-61.14"/>
</g>
<!-- mutt_pipe_attachment -->
<g id="node7" class="node">
<title>mutt_pipe_attachment</title>
<path fill="#ffffff" stroke="#ff0000" stroke-width="1.5" d="M847,-36.5C847,-36.5 983,-36.5 983,-36.5 986.5,-36.5 990,-40 990,-43.5 990,-43.5 990,-50.5 990,-50.5 990,-54 986.5,-57.5 983,-57.5 983,-57.5 847,-57.5 847,-57.5 843.5,-57.5 840,-54 840,-50.5 840,-50.5 840,-43.5 840,-43.5 840,-40 843.5,-36.5 847,-36.5"/>
<text text-anchor="middle" x="915" y="-43.9" font-family="Times,serif" font-size="12.00">mutt_pipe_attachment</text>
</g>
<!-- mutt_print_attachment&#45;&gt;mutt_decode_save_attachment -->
<g id="edge2" class="edge">
<title>mutt_print_attachment&#45;&gt;mutt_decode_save_attachment</title>
<path fill="none" stroke="black" d="M766.31,-58.5C791.23,-62.64 819.91,-67.39 845.33,-71.61"/>
<polygon fill="black" stroke="black" points="845.15,-73.35 850.37,-72.45 845.73,-69.9 845.15,-73.35"/>
</g>
<!-- mutt_print_attachment&#45;&gt;mutt_pipe_attachment -->
<g id="edge3" class="edge">
<title>mutt_print_attachment&#45;&gt;mutt_pipe_attachment</title>
<path fill="none" stroke="black" d="M779.18,-47.64C797.2,-47.55 816.45,-47.46 834.61,-47.38"/>
<polygon fill="black" stroke="black" points="834.71,-49.13 839.7,-47.35 834.69,-45.63 834.71,-49.13"/>
</g>
<!-- mutt_save_attachment -->
<g id="node9" class="node">
<title>mutt_save_attachment</title>
<path fill="#ffffff" stroke="#ff0000" stroke-width="1.5" d="M846,-0.5C846,-0.5 984,-0.5 984,-0.5 987.5,-0.5 991,-4 991,-7.5 991,-7.5 991,-14.5 991,-14.5 991,-18 987.5,-21.5 984,-21.5 984,-21.5 846,-21.5 846,-21.5 842.5,-21.5 839,-18 839,-14.5 839,-14.5 839,-7.5 839,-7.5 839,-4 842.5,-0.5 846,-0.5"/>
<text text-anchor="middle" x="915" y="-7.9" font-family="Times,serif" font-size="12.00">mutt_save_attachment</text>
</g>
<!-- mutt_print_attachment&#45;&gt;mutt_save_attachment -->
<g id="edge4" class="edge">
<title>mutt_print_attachment&#45;&gt;mutt_save_attachment</title>
<path fill="none" stroke="black" d="M762.9,-37.5C789.74,-32.79 821.45,-27.23 848.88,-22.42"/>
<polygon fill="black" stroke="black" points="849.33,-24.12 853.95,-21.53 848.72,-20.67 849.33,-24.12"/>
</g>
</g>
</svg>
